<svg version="1.1" id="Layer_1" xmlns="http://www.w3.org/2000/svg" xmlns:xlink="http://www.w3.org/1999/xlink" x="0px" y="0px"
	 width="100%" viewBox="0 0 300 300" enable-background="new 0 0 300 300" xml:space="preserve">
<path fill="#151F28" opacity="1.000000" stroke="none" 
	d="
M139.000000,301.000000 
	C92.666664,301.000000 46.833332,301.000000 1.000000,301.000000 
	C1.000000,201.000000 1.000000,101.000000 1.000000,1.000000 
	C101.000000,1.000000 201.000000,1.000000 301.000000,1.000000 
	C301.000000,101.000000 301.000000,201.000000 301.000000,301.000000 
	C247.166672,301.000000 193.333328,301.000000 139.000000,301.000000 
M219.547760,198.667831 
	C234.035690,198.773544 248.523834,198.938736 263.011139,198.882858 
	C264.303650,198.877884 266.699127,197.444153 266.703674,196.663071 
	C266.737885,190.772919 266.301575,184.880051 265.862427,178.315643 
	C264.931335,177.189667 264.087616,175.975540 263.055237,174.951691 
	C255.022842,166.985718 246.954102,159.056366 239.230835,150.517334 
	C240.956436,148.731094 242.648193,146.910645 244.413589,145.164642 
	C251.577194,138.079620 258.763397,131.017441 266.373016,123.228622 
	C266.580750,118.109283 266.688416,112.983177 267.034119,107.873169 
	C267.238770,104.847832 265.992126,103.620880 263.064423,103.642143 
	C248.937149,103.744743 234.809586,103.807198 219.996841,103.945099 
	C217.949951,105.513565 215.839905,107.007118 213.870468,108.667473 
	C210.643951,111.387619 207.508835,114.216187 203.742676,116.577141 
	C203.454376,116.411697 203.115128,116.298355 202.885010,116.073402 
	C186.940811,100.486298 170.857697,85.036148 155.188553,69.177002 
	C151.889175,65.837616 150.306625,66.130318 147.319916,69.079506 
	C131.010773,85.183868 114.542618,101.127220 97.529915,116.786888 
	C89.047211,105.063217 77.723961,101.925690 63.415089,102.542633 
	C52.450745,103.015381 43.933628,104.240143 39.878044,115.574898 
	C39.607098,116.332146 39.019985,117.005333 38.481209,117.632866 
	C35.448185,121.165535 36.337044,124.038872 39.515816,127.070236 
	C47.804016,134.974075 55.901352,143.078079 63.710098,151.658035 
	C55.472424,159.624344 47.271862,167.629623 38.975109,175.533920 
	C36.391281,177.995544 35.423241,180.204712 37.821621,183.533676 
	C41.280510,188.334671 43.212841,195.432663 47.774456,197.913116 
	C52.557060,200.513687 59.675335,198.819016 65.772820,199.000778 
	C65.938698,199.005722 66.109497,198.975800 66.270203,199.005035 
	C78.685158,201.263794 88.476028,197.209076 95.696785,186.854156 
	C96.243919,186.069550 97.156273,185.539612 98.504829,185.212326 
	C114.416183,200.720856 130.331482,216.225357 146.236420,231.740448 
	C150.793320,236.185669 152.054016,236.249741 156.468506,231.885757 
	C164.865097,223.585098 173.139008,215.158569 181.620941,206.946564 
	C189.349777,199.463669 197.286652,192.195663 205.711700,185.176575 
	C210.128937,189.467590 214.546158,193.758606 219.547760,198.667831 
z"/>
<path fill="#003A76" opacity="1.000000" stroke="none" 
	d="
M204.335144,116.999031 
	C207.508835,114.216187 210.643951,111.387619 213.870468,108.667473 
	C215.839905,107.007118 217.949951,105.513565 220.614136,104.163651 
	C223.453079,105.506821 225.621765,106.754745 227.905167,107.735596 
	C240.568451,113.175224 253.259628,118.549919 265.941254,123.946838 
	C258.763397,131.017441 251.577194,138.079620 244.413589,145.164642 
	C242.648193,146.910645 240.956436,148.731094 238.760681,150.932617 
	C227.237610,162.509567 216.184723,173.671249 205.131836,184.832947 
	C197.286652,192.195663 189.349777,199.463669 181.620941,206.946564 
	C173.139008,215.158569 164.865097,223.585098 156.468506,231.885757 
	C152.054016,236.249741 150.793320,236.185669 146.236420,231.740448 
	C130.331482,216.225357 114.416183,200.720856 98.093170,184.745178 
	C86.479271,173.219421 75.277039,162.160843 64.074806,151.102249 
	C55.901352,143.078079 47.804016,134.974075 39.515816,127.070236 
	C36.337044,124.038872 35.448185,121.165535 38.481209,117.632866 
	C39.019985,117.005333 39.607098,116.332146 39.878044,115.574898 
	C43.933628,104.240143 52.450745,103.015381 63.415089,102.542633 
	C77.723961,101.925690 89.047211,105.063217 97.951508,117.254799 
	C106.604546,126.069283 114.775223,134.477173 123.101692,142.727844 
	C125.866951,145.467926 129.032349,147.804214 132.095383,150.641876 
	C137.866791,157.132599 143.486221,163.376434 149.355988,169.375320 
	C149.960648,169.993271 152.577087,169.682022 153.381897,168.899185 
	C159.415512,163.030243 165.228378,156.934341 171.417038,150.798660 
	C181.786179,140.654861 191.865219,130.638412 201.885284,120.563309 
	C202.885391,119.557709 203.527100,118.195648 204.335144,116.999031 
z"/>
<path fill="#0AAEFE" opacity="1.000000" stroke="none" 
	d="
M132.014801,150.325104 
	C129.032349,147.804214 125.866951,145.467926 123.101692,142.727844 
	C114.775223,134.477173 106.604546,126.069283 98.251129,117.424324 
	C114.542618,101.127220 131.010773,85.183868 147.319916,69.079506 
	C150.306625,66.130318 151.889175,65.837616 155.188553,69.177002 
	C170.857697,85.036148 186.940811,100.486298 202.885010,116.073402 
	C203.115128,116.298355 203.454376,116.411697 204.038910,116.788086 
	C203.527100,118.195648 202.885391,119.557709 201.885284,120.563309 
	C191.865219,130.638412 181.786179,140.654861 171.261749,150.499512 
	C165.454269,144.989548 160.045898,139.728989 154.791580,134.318787 
	C152.401642,131.857941 150.249283,131.469330 147.770172,134.048172 
	C142.537064,139.491776 137.268707,144.901489 132.014801,150.325104 
z"/>
<path fill="#0AAEFE" opacity="1.000000" stroke="none" 
	d="
M63.892452,151.380142 
	C75.277039,162.160843 86.479271,173.219421 97.790176,184.584656 
	C97.156273,185.539612 96.243919,186.069550 95.696785,186.854156 
	C88.476028,197.209076 78.685158,201.263794 66.270203,199.005035 
	C66.109497,198.975800 65.938698,199.005722 65.772820,199.000778 
	C59.675335,198.819016 52.557060,200.513687 47.774456,197.913116 
	C43.212841,195.432663 41.280510,188.334671 37.821621,183.533676 
	C35.423241,180.204712 36.391281,177.995544 38.975109,175.533920 
	C47.271862,167.629623 55.472424,159.624344 63.892452,151.380142 
z"/>
<path fill="#0AAEFE" opacity="1.000000" stroke="none" 
	d="
M205.421753,185.004761 
	C216.184723,173.671249 227.237610,162.509567 238.593552,151.231781 
	C246.954102,159.056366 255.022842,166.985718 263.055237,174.951691 
	C264.087616,175.975540 264.931335,177.189667 265.569702,178.704895 
	C259.795898,181.408997 254.338409,183.781693 248.828613,186.026047 
	C238.890030,190.074402 228.920181,194.045975 218.963394,198.049622 
	C214.546158,193.758606 210.128937,189.467590 205.421753,185.004761 
z"/>
<path fill="#0573BA" opacity="1.000000" stroke="none" 
	d="
M219.255585,198.358734 
	C228.920181,194.045975 238.890030,190.074402 248.828613,186.026047 
	C254.338409,183.781693 259.795898,181.408997 265.644623,179.041092 
	C266.301575,184.880051 266.737885,190.772919 266.703674,196.663071 
	C266.699127,197.444153 264.303650,198.877884 263.011139,198.882858 
	C248.523834,198.938736 234.035690,198.773544 219.255585,198.358734 
z"/>
<path fill="#0573BA" opacity="1.000000" stroke="none" 
	d="
M266.157135,123.587730 
	C253.259628,118.549919 240.568451,113.175224 227.905167,107.735596 
	C225.621765,106.754745 223.453079,105.506821 220.956772,104.133049 
	C234.809586,103.807198 248.937149,103.744743 263.064423,103.642143 
	C265.992126,103.620880 267.238770,104.847832 267.034119,107.873169 
	C266.688416,112.983177 266.580750,118.109283 266.157135,123.587730 
z"/>
<path fill="#152029" opacity="1.000000" stroke="none" 
	d="
M132.095383,150.641876 
	C137.268707,144.901489 142.537064,139.491776 147.770172,134.048172 
	C150.249283,131.469330 152.401642,131.857941 154.791580,134.318787 
	C160.045898,139.728989 165.454269,144.989548 170.955048,150.610336 
	C165.228378,156.934341 159.415512,163.030243 153.381897,168.899185 
	C152.577087,169.682022 149.960648,169.993271 149.355988,169.375320 
	C143.486221,163.376434 137.866791,157.132599 132.095383,150.641876 
z"/>
</svg>