<svg version="1.1" id="Layer_1" xmlns="http://www.w3.org/2000/svg" xmlns:xlink="http://www.w3.org/1999/xlink" x="0px" y="0px"
	 width="100%" viewBox="0 0 2000 2000" enable-background="new 0 0 2000 2000" xml:space="preserve">
<path fill="#151F28" opacity="1.000000" stroke="none" 
	d="
M1130.000000,2001.000000 
	C753.333313,2001.000000 377.166656,2001.000000 1.000000,2001.000000 
	C1.000000,1334.333374 1.000000,667.666687 1.000000,1.000000 
	C667.666687,1.000000 1334.333374,1.000000 2001.000000,1.000000 
	C2001.000000,667.666687 2001.000000,1334.333374 2001.000000,2001.000000 
	C1710.833374,2001.000000 1420.666626,2001.000000 1130.000000,2001.000000 
M1560.784180,1134.313354 
	C1549.422974,1122.800537 1538.193481,1111.154053 1526.675537,1099.800293 
	C1493.504883,1067.102783 1460.217529,1034.523560 1427.238037,1001.279663 
	C1428.229614,999.963440 1429.072266,998.494995 1430.235962,997.354431 
	C1442.355713,985.476624 1454.580078,973.705322 1466.673340,961.800903 
	C1496.559692,932.380981 1526.406372,902.920593 1556.202393,873.409180 
	C1557.502563,872.121399 1558.142822,870.167297 1559.937256,868.548218 
	C1560.958252,863.504333 1562.665405,858.488586 1562.874146,853.411316 
	C1563.550171,836.974915 1563.695557,820.516296 1564.003296,804.065430 
	C1564.109131,798.407959 1563.452148,792.654480 1564.264771,787.109253 
	C1565.912964,775.864685 1561.314331,769.809204 1550.085571,769.806580 
	C1479.989990,769.789856 1409.894531,769.784424 1339.798950,769.852112 
	C1337.202515,769.854614 1334.606689,770.651123 1331.420654,771.374084 
	C1330.078247,772.613708 1328.694824,773.811829 1327.399780,775.099182 
	C1307.471436,794.908630 1287.579346,814.754883 1267.593262,834.505920 
	C1265.765747,836.311890 1263.351562,837.524353 1260.692139,838.537415 
	C1260.165894,838.129211 1259.593018,837.768677 1259.120117,837.305908 
	C1234.752319,813.463745 1210.370850,789.635437 1186.037720,765.757874 
	C1145.667969,726.143982 1105.326294,686.501343 1064.980103,646.863464 
	C1047.241943,629.436523 1029.608765,611.901245 1011.742859,594.606323 
	C1005.938354,588.987427 998.036865,589.457764 992.221069,595.142822 
	C980.729858,606.375793 969.276550,617.647522 957.810059,628.905762 
	C933.150757,653.117065 908.466187,677.302734 883.840637,701.548340 
	C844.281067,740.497559 804.780579,779.506775 765.205566,818.440247 
	C758.350708,825.184082 751.250854,831.678772 743.536133,838.153870 
	C741.862671,836.818298 740.041382,835.630371 738.538025,834.124878 
	C718.292847,813.851318 698.093567,793.531799 677.878418,773.228210 
	C674.545288,769.880554 671.139343,767.086914 665.856262,767.097900 
	C613.203003,767.207703 560.549500,767.176880 507.896088,767.145691 
	C502.974579,767.142761 499.212708,769.070496 496.573944,773.187195 
	C479.779968,799.386597 462.953827,825.565552 446.232086,851.810974 
	C441.111511,859.847961 442.021027,866.529785 448.890076,873.273193 
	C458.985138,883.183533 469.175385,892.996948 479.272003,902.905579 
	C510.417755,933.471741 541.558899,964.042603 572.624878,994.689636 
	C574.822754,996.857788 576.395569,999.659485 577.875427,1002.729248 
	C564.712769,1015.678406 551.544678,1028.622070 538.388489,1041.577759 
	C508.858246,1070.657715 479.338318,1099.748291 449.804138,1128.824219 
	C441.645294,1136.856689 441.017120,1142.966919 446.905121,1152.044800 
	C463.235016,1177.222046 479.570435,1202.398804 495.536560,1227.806274 
	C498.786774,1232.978516 502.462585,1235.129395 508.443481,1235.114502 
	C560.441833,1234.984619 612.441040,1234.952881 664.438843,1235.159180 
	C670.341858,1235.182617 674.529297,1233.100586 678.468445,1229.105957 
	C699.938171,1207.333984 721.508972,1185.661743 743.698730,1164.159668 
	C746.129944,1166.152100 748.729919,1167.972290 750.966370,1170.163452 
	C775.463684,1194.164062 799.908813,1218.217773 824.358887,1242.266479 
	C860.208740,1277.527954 896.067383,1312.780640 931.889954,1348.069702 
	C951.813232,1367.696167 971.736267,1387.323730 991.502319,1407.107666 
	C995.401550,1411.010498 999.837524,1413.212646 1004.919922,1411.658081 
	C1008.534180,1410.552979 1012.040161,1408.070557 1014.809692,1405.391602 
	C1033.722290,1387.097168 1052.429199,1368.590210 1071.198364,1350.147583 
	C1111.930298,1310.124756 1152.638916,1270.078247 1193.398682,1230.083740 
	C1216.217163,1207.693604 1239.118652,1185.388184 1262.341187,1163.615112 
	C1264.585083,1165.555054 1266.955933,1167.367310 1269.052979,1169.454834 
	C1288.659302,1188.971924 1308.172363,1208.583130 1327.868530,1228.009033 
	C1329.691528,1229.807007 1332.591797,1230.512939 1335.558716,1232.370850 
	C1337.688232,1232.584595 1339.817505,1232.984375 1341.947144,1232.985352 
	C1410.738037,1233.017944 1479.528931,1233.012573 1548.319824,1233.009399 
	C1549.818481,1233.009277 1551.330566,1233.089355 1552.813721,1232.926758 
	C1561.693726,1231.953491 1566.360718,1225.180420 1564.349365,1216.366821 
	C1564.057739,1215.088623 1564.038330,1213.732544 1564.018066,1212.410645 
	C1563.694214,1191.284058 1563.510498,1170.154053 1562.990234,1149.032471 
	C1562.874512,1144.337402 1561.588867,1139.671265 1560.784180,1134.313354 
z"/>
<path fill="#003A76" opacity="1.000000" stroke="none" 
	d="
M1261.982788,1163.044556 
	C1239.118652,1185.388184 1216.217163,1207.693604 1193.398682,1230.083740 
	C1152.638916,1270.078247 1111.930298,1310.124756 1071.198364,1350.147583 
	C1052.429199,1368.590210 1033.722290,1387.097168 1014.809692,1405.391602 
	C1012.040161,1408.070557 1008.534180,1410.552979 1004.919922,1411.658081 
	C999.837524,1413.212646 995.401550,1411.010498 991.502319,1407.107666 
	C971.736267,1387.323730 951.813232,1367.696167 931.889954,1348.069702 
	C896.067383,1312.780640 860.208740,1277.527954 824.358887,1242.266479 
	C799.908813,1218.217773 775.463684,1194.164062 750.966370,1170.163452 
	C748.729919,1167.972290 746.129944,1166.152100 743.279663,1163.728271 
	C738.411865,1158.629272 734.087341,1153.835571 729.495056,1149.313721 
	C680.721558,1101.288330 631.911804,1053.299438 583.067139,1005.346436 
	C581.721191,1004.025024 579.873047,1003.215088 578.259033,1002.166626 
	C576.395569,999.659485 574.822754,996.857788 572.624878,994.689636 
	C541.558899,964.042603 510.417755,933.471741 479.272003,902.905579 
	C469.175385,892.996948 458.985138,883.183533 448.890076,873.273193 
	C442.021027,866.529785 441.111511,859.847961 446.232086,851.810974 
	C462.953827,825.565552 479.779968,799.386597 496.573944,773.187195 
	C499.212708,769.070496 502.974579,767.142761 507.896088,767.145691 
	C560.549500,767.176880 613.203003,767.207703 665.856262,767.097900 
	C671.139343,767.086914 674.545288,769.880554 677.878418,773.228210 
	C698.093567,793.531799 718.292847,813.851318 738.538025,834.124878 
	C740.041382,835.630371 741.862671,836.818298 743.969238,838.536682 
	C745.791748,840.728210 747.013611,842.701233 748.599121,844.317627 
	C756.169495,852.035339 763.854675,859.640259 771.469727,867.314392 
	C814.650391,910.829712 857.816833,954.359070 901.031067,997.841003 
	C902.119141,998.935852 903.702698,999.538208 905.126831,1000.692444 
	C906.347717,1002.598083 907.312012,1004.364990 908.673584,1005.737854 
	C937.835266,1035.140381 967.052856,1064.487549 996.227356,1093.877319 
	C1000.930298,1098.614990 1001.250732,1098.719971 1006.092285,1093.914062 
	C1027.107544,1073.053955 1048.127930,1052.198730 1069.093628,1031.288940 
	C1079.088501,1021.320679 1088.965576,1011.234497 1099.186768,1001.012146 
	C1100.344971,1000.048279 1101.249756,999.311584 1102.074829,998.494385 
	C1125.771240,975.022705 1149.464233,951.547546 1173.148071,928.063354 
	C1201.458862,899.991272 1229.772583,871.921997 1258.030640,843.796875 
	C1259.360352,842.473389 1260.161987,840.619263 1261.209717,839.012329 
	C1263.351562,837.524353 1265.765747,836.311890 1267.593262,834.505920 
	C1287.579346,814.754883 1307.471436,794.908630 1327.399780,775.099182 
	C1328.694824,773.811829 1330.078247,772.613708 1331.909058,771.503845 
	C1333.795166,772.510681 1335.105835,773.591187 1336.604248,774.233215 
	C1351.288086,780.525208 1366.000610,786.750305 1380.709961,792.982727 
	C1415.647583,807.785522 1450.587158,822.583801 1485.527344,837.380554 
	C1510.047241,847.764404 1534.569458,858.142822 1559.090576,868.523682 
	C1558.142822,870.167297 1557.502563,872.121399 1556.202393,873.409180 
	C1526.406372,902.920593 1496.559692,932.380981 1466.673340,961.800903 
	C1454.580078,973.705322 1442.355713,985.476624 1430.235962,997.354431 
	C1429.072266,998.494995 1428.229614,999.963440 1426.803467,1001.741577 
	C1425.208130,1003.125549 1423.953613,1003.951782 1422.900391,1004.983643 
	C1394.201172,1033.100586 1365.506836,1061.222290 1336.845215,1089.377441 
	C1311.869873,1113.911499 1286.935425,1138.487305 1261.982788,1163.044556 
z"/>
<path fill="#0AAEFF" opacity="1.000000" stroke="none" 
	d="
M1260.950928,838.774841 
	C1260.161987,840.619263 1259.360352,842.473389 1258.030640,843.796875 
	C1229.772583,871.921997 1201.458862,899.991272 1173.148071,928.063354 
	C1149.464233,951.547546 1125.771240,975.022705 1102.074829,998.494385 
	C1101.249756,999.311584 1100.344971,1000.048279 1098.895996,1000.835388 
	C1097.220459,999.605042 1096.194580,998.293030 1095.021973,997.128784 
	C1071.319336,973.594421 1047.605957,950.071106 1023.880615,926.559692 
	C1016.396118,919.142578 1008.871277,911.766235 1001.270447,904.278259 
	C999.724121,905.589355 998.525085,906.462585 997.493652,907.502014 
	C982.327454,922.786011 967.214294,938.122681 952.026001,953.384583 
	C936.404602,969.081787 920.714966,984.711182 905.055176,1000.370239 
	C903.702698,999.538208 902.119141,998.935852 901.031067,997.841003 
	C857.816833,954.359070 814.650391,910.829712 771.469727,867.314392 
	C763.854675,859.640259 756.169495,852.035339 748.599121,844.317627 
	C747.013611,842.701233 745.791748,840.728210 744.333252,838.604004 
	C751.250854,831.678772 758.350708,825.184082 765.205566,818.440247 
	C804.780579,779.506775 844.281067,740.497559 883.840637,701.548340 
	C908.466187,677.302734 933.150757,653.117065 957.810059,628.905762 
	C969.276550,617.647522 980.729858,606.375793 992.221069,595.142822 
	C998.036865,589.457764 1005.938354,588.987427 1011.742859,594.606323 
	C1029.608765,611.901245 1047.241943,629.436523 1064.980103,646.863464 
	C1105.326294,686.501343 1145.667969,726.143982 1186.037720,765.757874 
	C1210.370850,789.635437 1234.752319,813.463745 1259.120117,837.305908 
	C1259.593018,837.768677 1260.165894,838.129211 1260.950928,838.774841 
z"/>
<path fill="#0AAEFE" opacity="1.000000" stroke="none" 
	d="
M578.067261,1002.447937 
	C579.873047,1003.215088 581.721191,1004.025024 583.067139,1005.346436 
	C631.911804,1053.299438 680.721558,1101.288330 729.495056,1149.313721 
	C734.087341,1153.835571 738.411865,1158.629272 742.952820,1163.625977 
	C721.508972,1185.661743 699.938171,1207.333984 678.468445,1229.105957 
	C674.529297,1233.100586 670.341858,1235.182617 664.438843,1235.159180 
	C612.441040,1234.952881 560.441833,1234.984619 508.443481,1235.114502 
	C502.462585,1235.129395 498.786774,1232.978516 495.536560,1227.806274 
	C479.570435,1202.398804 463.235016,1177.222046 446.905121,1152.044800 
	C441.017120,1142.966919 441.645294,1136.856689 449.804138,1128.824219 
	C479.338318,1099.748291 508.858246,1070.657715 538.388489,1041.577759 
	C551.544678,1028.622070 564.712769,1015.678406 578.067261,1002.447937 
z"/>
<path fill="#0AAEFE" opacity="1.000000" stroke="none" 
	d="
M1262.161987,1163.329834 
	C1286.935425,1138.487305 1311.869873,1113.911499 1336.845215,1089.377441 
	C1365.506836,1061.222290 1394.201172,1033.100586 1422.900391,1004.983643 
	C1423.953613,1003.951782 1425.208130,1003.125549 1426.672607,1002.050659 
	C1460.217529,1034.523560 1493.504883,1067.102783 1526.675537,1099.800293 
	C1538.193481,1111.154053 1549.422974,1122.800537 1560.465454,1134.719360 
	C1549.609497,1139.581177 1539.071167,1144.034180 1528.535400,1148.493530 
	C1495.011719,1162.682617 1461.486816,1176.868896 1427.966675,1191.066040 
	C1403.169067,1201.568481 1378.347778,1212.015991 1353.604614,1222.645264 
	C1347.269287,1225.366821 1341.189209,1228.682861 1334.991943,1231.725830 
	C1332.591797,1230.512939 1329.691528,1229.807007 1327.868530,1228.009033 
	C1308.172363,1208.583130 1288.659302,1188.971924 1269.052979,1169.454834 
	C1266.955933,1167.367310 1264.585083,1165.555054 1262.161987,1163.329834 
z"/>
<path fill="#0573B9" opacity="1.000000" stroke="none" 
	d="
M1559.513916,868.535950 
	C1534.569458,858.142822 1510.047241,847.764404 1485.527344,837.380554 
	C1450.587158,822.583801 1415.647583,807.785522 1380.709961,792.982727 
	C1366.000610,786.750305 1351.288086,780.525208 1336.604248,774.233215 
	C1335.105835,773.591187 1333.795166,772.510681 1332.204102,771.355591 
	C1334.606689,770.651123 1337.202515,769.854614 1339.798950,769.852112 
	C1409.894531,769.784424 1479.989990,769.789856 1550.085571,769.806580 
	C1561.314331,769.809204 1565.912964,775.864685 1564.264771,787.109253 
	C1563.452148,792.654480 1564.109131,798.407959 1564.003296,804.065430 
	C1563.695557,820.516296 1563.550171,836.974915 1562.874146,853.411316 
	C1562.665405,858.488586 1560.958252,863.504333 1559.513916,868.535950 
z"/>
<path fill="#0573B9" opacity="1.000000" stroke="none" 
	d="
M1335.275391,1232.048340 
	C1341.189209,1228.682861 1347.269287,1225.366821 1353.604614,1222.645264 
	C1378.347778,1212.015991 1403.169067,1201.568481 1427.966675,1191.066040 
	C1461.486816,1176.868896 1495.011719,1162.682617 1528.535400,1148.493530 
	C1539.071167,1144.034180 1549.609497,1139.581177 1560.494385,1135.058594 
	C1561.588867,1139.671265 1562.874512,1144.337402 1562.990234,1149.032471 
	C1563.510498,1170.154053 1563.694214,1191.284058 1564.018066,1212.410645 
	C1564.038330,1213.732544 1564.057739,1215.088623 1564.349365,1216.366821 
	C1566.360718,1225.180420 1561.693726,1231.953491 1552.813721,1232.926758 
	C1551.330566,1233.089355 1549.818481,1233.009277 1548.319824,1233.009399 
	C1479.528931,1233.012573 1410.738037,1233.017944 1341.947144,1232.985352 
	C1339.817505,1232.984375 1337.688232,1232.584595 1335.275391,1232.048340 
z"/>
<path fill="#151F29" opacity="1.000000" stroke="none" 
	d="
M905.126831,1000.692444 
	C920.714966,984.711182 936.404602,969.081787 952.026001,953.384583 
	C967.214294,938.122681 982.327454,922.786011 997.493652,907.502014 
	C998.525085,906.462585 999.724121,905.589355 1001.270447,904.278259 
	C1008.871277,911.766235 1016.396118,919.142578 1023.880615,926.559692 
	C1047.605957,950.071106 1071.319336,973.594421 1095.021973,997.128784 
	C1096.194580,998.293030 1097.220459,999.605042 1098.605469,1001.025024 
	C1088.965576,1011.234497 1079.088501,1021.320679 1069.093628,1031.288940 
	C1048.127930,1052.198730 1027.107544,1073.053955 1006.092285,1093.914062 
	C1001.250732,1098.719971 1000.930298,1098.614990 996.227356,1093.877319 
	C967.052856,1064.487549 937.835266,1035.140381 908.673584,1005.737854 
	C907.312012,1004.364990 906.347717,1002.598083 905.126831,1000.692444 
z"/>
</svg>